# xmcd
#
# Track frame offsets: 
#        150
#        15591
#        30574
#        43983
#        60650
#        76732
#        100593
#        122361
#        133713
#        155257
#        171882
#        195846
#        210868
#        224294
#        234660
#        259138
#        271058
#        288300
#        305962
#        323785
#
# Disc length: 4468 seconds
#
# Revision: 0
# Processed by: cddbd v1.5.2PL0 Copyright (c) Steve Scherf et al.
# Submitted via: ExactAudioCopy v1.1
#
DISCID=0a117214
DTITLE=Maanam - Miłość jest cudowna (Album2)
DYEAR=2015
DGENRE=Blues
TTITLE0=Boskie Buenos
TTITLE1=Oddech szczura
TTITLE2=Cykady na cykladach
TTITLE3=Och ten Hollywood
TTITLE4=O! nie rób tyle hałasu
TTITLE5=Paranoja jest goła
TTITLE6=Electro Spiro Contra Zanzara
TTITLE7=To tylko tango
TTITLE8=Street Cowboys
TTITLE9=Derwisz
TTITLE10=Życie za życie
TTITLE11=Samotność mieszka w pustych oknach
TTITLE12=Wieje piaskiem od strony wojny
TTITLE13=Nic dwa razy
TTITLE14=Mówią, ze miłość mieszka w niebie
TTITLE15=Puerto Rico
TTITLE16=Hotel Nirwana
TTITLE17=Do kogo biegłam
TTITLE18=Ocean wolnego czasu
TTITLE19=Karuzela z Madonnami
EXTD=
EXTT0=
EXTT1=
EXTT2=
EXTT3=
EXTT4=
EXTT5=
EXTT6=
EXTT7=
EXTT8=
EXTT9=
EXTT10=
EXTT11=
EXTT12=
EXTT13=
EXTT14=
EXTT15=
EXTT16=
EXTT17=
EXTT18=
EXTT19=
PLAYORDER=
